<mxfile host="app.diagrams.net" agent="Mozilla/5.0 (Windows NT 10.0; Win64; x64) AppleWebKit/537.36 (KHTML, like Gecko) Chrome/132.0.0.0 Safari/537.36 Edg/132.0.0.0" version="26.0.11">
  <diagram id="C5RBs43oDa-KdzZeNtuy" name="Page-1">
    <mxGraphModel dx="2605" dy="1433" grid="1" gridSize="10" guides="1" tooltips="1" connect="1" arrows="1" fold="1" page="1" pageScale="1" pageWidth="827" pageHeight="1169" math="0" shadow="0">
      <root>
        <mxCell id="WIyWlLk6GJQsqaUBKTNV-0" />
        <mxCell id="WIyWlLk6GJQsqaUBKTNV-1" parent="WIyWlLk6GJQsqaUBKTNV-0" />
        <mxCell id="hXfg1dFf9wVbkc50uwAT-4" style="edgeStyle=orthogonalEdgeStyle;rounded=0;orthogonalLoop=1;jettySize=auto;html=1;entryX=0.5;entryY=0;entryDx=0;entryDy=0;" edge="1" parent="WIyWlLk6GJQsqaUBKTNV-1" source="hXfg1dFf9wVbkc50uwAT-0" target="hXfg1dFf9wVbkc50uwAT-2">
          <mxGeometry relative="1" as="geometry" />
        </mxCell>
        <mxCell id="hXfg1dFf9wVbkc50uwAT-0" value="Read Input Document Main Categories Based on Domain (Not Available to Use But configurable to developers)" style="rounded=0;whiteSpace=wrap;html=1;" vertex="1" parent="WIyWlLk6GJQsqaUBKTNV-1">
          <mxGeometry x="80" y="60" width="200" height="100" as="geometry" />
        </mxCell>
        <mxCell id="hXfg1dFf9wVbkc50uwAT-5" style="edgeStyle=orthogonalEdgeStyle;rounded=0;orthogonalLoop=1;jettySize=auto;html=1;exitX=0.5;exitY=1;exitDx=0;exitDy=0;" edge="1" parent="WIyWlLk6GJQsqaUBKTNV-1" source="hXfg1dFf9wVbkc50uwAT-1">
          <mxGeometry relative="1" as="geometry">
            <mxPoint x="310" y="200" as="targetPoint" />
          </mxGeometry>
        </mxCell>
        <mxCell id="hXfg1dFf9wVbkc50uwAT-1" value="Inputs Documents from Folder Dynamically read from Folder for Comparison Analysis available to users to provide the documents to the application for comparsion analysis" style="rounded=0;whiteSpace=wrap;html=1;" vertex="1" parent="WIyWlLk6GJQsqaUBKTNV-1">
          <mxGeometry x="330" y="60" width="230" height="100" as="geometry" />
        </mxCell>
        <mxCell id="hXfg1dFf9wVbkc50uwAT-8" style="edgeStyle=orthogonalEdgeStyle;rounded=0;orthogonalLoop=1;jettySize=auto;html=1;exitX=0.5;exitY=1;exitDx=0;exitDy=0;entryX=0.5;entryY=0;entryDx=0;entryDy=0;" edge="1" parent="WIyWlLk6GJQsqaUBKTNV-1" source="hXfg1dFf9wVbkc50uwAT-2" target="hXfg1dFf9wVbkc50uwAT-6">
          <mxGeometry relative="1" as="geometry" />
        </mxCell>
        <mxCell id="hXfg1dFf9wVbkc50uwAT-2" value="Read and Pre-Processing to Remove Articles and Tokens and Stemming" style="rounded=0;whiteSpace=wrap;html=1;" vertex="1" parent="WIyWlLk6GJQsqaUBKTNV-1">
          <mxGeometry x="160" y="200" width="360" height="80" as="geometry" />
        </mxCell>
        <mxCell id="hXfg1dFf9wVbkc50uwAT-25" style="edgeStyle=orthogonalEdgeStyle;rounded=0;orthogonalLoop=1;jettySize=auto;html=1;exitX=0.5;exitY=1;exitDx=0;exitDy=0;entryX=0.5;entryY=0;entryDx=0;entryDy=0;" edge="1" parent="WIyWlLk6GJQsqaUBKTNV-1" source="hXfg1dFf9wVbkc50uwAT-6" target="hXfg1dFf9wVbkc50uwAT-12">
          <mxGeometry relative="1" as="geometry" />
        </mxCell>
        <mxCell id="hXfg1dFf9wVbkc50uwAT-6" value="Write the Pre-Processed Text Files into two different Folders inside application project one as Main Label Document and another folder to contain documents for relevance check respectively" style="rounded=0;whiteSpace=wrap;html=1;" vertex="1" parent="WIyWlLk6GJQsqaUBKTNV-1">
          <mxGeometry x="160" y="320" width="360" height="160" as="geometry" />
        </mxCell>
        <mxCell id="hXfg1dFf9wVbkc50uwAT-12" value="Semantic Analysis using Calculate Similarity Async ()&lt;div&gt;&lt;br&gt;&lt;/div&gt;&lt;div&gt;Files will be read through foreach () until End of files in each folder to be used for comparison&lt;/div&gt;&lt;div&gt;&lt;br&gt;&lt;/div&gt;&lt;div&gt;small text for phrases and large text for documents&lt;br&gt;&lt;div&gt;&lt;br&gt;&lt;/div&gt;&lt;div&gt;&lt;br&gt;&lt;/div&gt;&lt;/div&gt;" style="rounded=0;whiteSpace=wrap;html=1;" vertex="1" parent="WIyWlLk6GJQsqaUBKTNV-1">
          <mxGeometry x="160" y="560" width="360" height="160" as="geometry" />
        </mxCell>
        <mxCell id="hXfg1dFf9wVbkc50uwAT-22" style="edgeStyle=orthogonalEdgeStyle;rounded=0;orthogonalLoop=1;jettySize=auto;html=1;exitX=0.5;exitY=1;exitDx=0;exitDy=0;entryX=0.5;entryY=0;entryDx=0;entryDy=0;" edge="1" parent="WIyWlLk6GJQsqaUBKTNV-1" source="hXfg1dFf9wVbkc50uwAT-14" target="hXfg1dFf9wVbkc50uwAT-18">
          <mxGeometry relative="1" as="geometry" />
        </mxCell>
        <mxCell id="hXfg1dFf9wVbkc50uwAT-14" value="Similarity Algorithm&lt;div&gt;Cosine Similarity accepts 2 arguments of vector values&amp;nbsp;&lt;/div&gt;&lt;div&gt;&lt;br&gt;&lt;/div&gt;&lt;div&gt;output values between -1 to +1 (Value closer to 1 is more semantically similar)&lt;/div&gt;" style="rounded=0;whiteSpace=wrap;html=1;" vertex="1" parent="WIyWlLk6GJQsqaUBKTNV-1">
          <mxGeometry x="162" y="801" width="360" height="120" as="geometry" />
        </mxCell>
        <mxCell id="hXfg1dFf9wVbkc50uwAT-17" value="Embedding Vector values" style="text;html=1;align=center;verticalAlign=middle;resizable=0;points=[];autosize=1;strokeColor=none;fillColor=none;" vertex="1" parent="WIyWlLk6GJQsqaUBKTNV-1">
          <mxGeometry x="320" y="760" width="160" height="30" as="geometry" />
        </mxCell>
        <mxCell id="hXfg1dFf9wVbkc50uwAT-28" value="" style="edgeStyle=orthogonalEdgeStyle;rounded=0;orthogonalLoop=1;jettySize=auto;html=1;" edge="1" parent="WIyWlLk6GJQsqaUBKTNV-1" source="hXfg1dFf9wVbkc50uwAT-18" target="hXfg1dFf9wVbkc50uwAT-23">
          <mxGeometry relative="1" as="geometry" />
        </mxCell>
        <mxCell id="hXfg1dFf9wVbkc50uwAT-18" value="Write Output in CSV File Using CSV Util&amp;nbsp;" style="rounded=0;whiteSpace=wrap;html=1;" vertex="1" parent="WIyWlLk6GJQsqaUBKTNV-1">
          <mxGeometry x="160" y="960" width="360" height="80" as="geometry" />
        </mxCell>
        <mxCell id="hXfg1dFf9wVbkc50uwAT-23" value="Visualization Using Python or Excel After Fetching tuples vales of similarity Data&lt;div&gt;Ex: &quot;Phrase1&quot;, &quot;Phrase 2&quot;,&quot;0.8968&quot;, &quot;technology&quot;&lt;/div&gt;" style="rounded=0;whiteSpace=wrap;html=1;" vertex="1" parent="WIyWlLk6GJQsqaUBKTNV-1">
          <mxGeometry x="160" y="1080" width="360" height="80" as="geometry" />
        </mxCell>
        <mxCell id="hXfg1dFf9wVbkc50uwAT-30" style="edgeStyle=orthogonalEdgeStyle;rounded=0;orthogonalLoop=1;jettySize=auto;html=1;entryX=0.439;entryY=-0.008;entryDx=0;entryDy=0;entryPerimeter=0;" edge="1" parent="WIyWlLk6GJQsqaUBKTNV-1" source="hXfg1dFf9wVbkc50uwAT-12" target="hXfg1dFf9wVbkc50uwAT-14">
          <mxGeometry relative="1" as="geometry" />
        </mxCell>
      </root>
    </mxGraphModel>
  </diagram>
</mxfile>
